<?xml version="1.0" standalone="no"?>
<?xml-stylesheet href="../css/style.css" type="text/css"?>

<!-- Generator: Adobe Illustrator 16.2.0, SVG Export Plug-In . SVG Version: 6.00 Build 0)  -->
<!DOCTYPE svg PUBLIC "-//W3C//DTD SVG 1.1//EN" "http://www.w3.org/Graphics/SVG/1.1/DTD/svg11.dtd" [
	<!ENTITY st0 "fill:none;stroke:#54C2E6;stroke-miterlimit:10;">
]>
<svg version="1.1" id="Layer_1" xmlns="http://www.w3.org/2000/svg" xmlns:xlink="http://www.w3.org/1999/xlink" x="0px" y="0px"
	 width="352px" height="242px" viewBox="0 0 352 242" style="enable-background:new 0 0 352 242;" xml:space="preserve">
<g id="lines" class="lines">
	<path class="line" style="&st0;" d="M107.103,5.892c-5.473,0-10.361,2.5-13.58,6.419l178.211,0.006c-3.218-3.938-8.118-6.425-13.607-6.425
		H107.103z"/>
	<path class="line" style="&st0;" d="M107.103,128.103c-5.473,0-10.361-2.5-13.58-6.419l178.211-0.006c-3.218,3.938-8.118,6.426-13.607,6.426
		H107.103z"/>
	<path class="line" style="&st0;" d="M160.379,21.21l44.471,0.001c6.682-4.981,16.285-4.868,24.232,0l46.449,0.001
		c-0.297-2.309-1.045-4.477-2.153-6.414L91.858,14.787c-1.111,1.938-1.861,4.11-2.159,6.422l46.452,0.001
		C144.098,16.344,153.698,16.231,160.379,21.21z"/>
	<path class="line" style="&st0;" d="M130.789,25.192c0.525-0.524,1.07-1.015,1.625-1.486H89.221v6.413h37.682
		C127.978,28.383,129.26,26.719,130.789,25.192z"/>
	<path class="line" style="&st0;" d="M163.037,23.707c1.683,1.879,2.957,4.055,3.803,6.413h31.552c0.846-2.358,2.12-4.534,3.803-6.413H163.037z"
		/>
	<path class="line" style="&st0;" d="M232.817,23.707c0.555,0.471,1.1,0.961,1.625,1.486c1.529,1.526,2.812,3.19,3.886,4.927h37.682v-6.413
		H232.817z"/>
	<path class="line" style="&st0;" d="M125.54,32.614H89.221v6.413h34.246C123.843,36.86,124.54,34.7,125.54,32.614z"/>
	<path class="line" style="&st0;" d="M197.681,32.614h-30.13c0.472,2.072,0.637,4.234,0.496,6.413h29.139
		C197.044,36.849,197.209,34.687,197.681,32.614z"/>
	<path class="line" style="&st0;" d="M239.691,32.614c1,2.085,1.697,4.246,2.073,6.413h34.246v-6.413H239.691z"/>
	<path class="line" style="&st0;" d="M123.174,41.522H89.221v6.413h34.52C123.225,45.874,123.031,43.713,123.174,41.522z"/>
	<path class="line" style="&st0;" d="M167.772,41.522c-0.373,2.181-1.074,4.341-2.078,6.413h4.507c3.878-1.266,8.053-1.969,12.414-1.969
		c4.362,0,8.537,0.704,12.415,1.969h4.507c-1.004-2.071-1.705-4.231-2.077-6.413H167.772z"/>
	<path class="line" style="&st0;" d="M242.058,41.522c0.142,2.191-0.051,4.352-0.568,6.413h34.52v-6.413H242.058z"/>
	<path class="line" style="&st0;" d="M128.52,56.506c-1.771-1.768-3.074-3.839-3.969-6.076h-35.33v6.413h39.667
		C128.767,56.728,128.638,56.624,128.52,56.506z"/>
	<path class="line" style="&st0;" d="M240.681,50.43c-0.895,2.237-2.198,4.309-3.97,6.076c-0.118,0.118-0.246,0.222-0.367,0.336h39.667V50.43
		H240.681z"/>
	<path class="line" style="&st0;" d="M152.229,60.293c-6.763,2.726-14.323,2.406-20.052-0.957H89.221v6.413h59.595
		C149.766,63.828,150.91,62.001,152.229,60.293z"/>
	<path class="line" style="&st0;" d="M233.054,59.337c-5.729,3.363-13.29,3.683-20.052,0.957c1.319,1.708,2.463,3.534,3.413,5.456h59.595v-6.413
		H233.054z"/>
	<path class="line" style="&st0;" d="M147.731,68.245h-58.51v6.413h56.776C146.342,72.442,146.927,70.297,147.731,68.245z"/>
	<path class="line" style="&st0;" d="M217.5,68.245c0.805,2.052,1.389,4.197,1.734,6.413h56.776v-6.413H217.5z"/>
	<path class="line" style="&st0;" d="M145.628,79.363c0-0.744,0.033-1.48,0.087-2.211H89.221v6.413h56.71
		C145.738,82.188,145.628,80.788,145.628,79.363z"/>
	<path class="line" style="&st0;" d="M219.517,77.152c0.053,0.731,0.086,1.468,0.086,2.211c0,1.424-0.11,2.825-0.304,4.202h56.71v-6.413H219.517z
		"/>
	<path class="line" style="&st0;" d="M146.37,86.06H89.221v6.413h59.367C147.62,90.432,146.871,88.287,146.37,86.06z"/>
	<path class="line" style="&st0;" d="M218.861,86.06c-0.5,2.228-1.25,4.372-2.218,6.413h59.367V86.06H218.861z"/>
	<path class="line" style="&st0;" d="M149.893,94.967H89.221v6.413h65.574C152.896,99.432,151.248,97.282,149.893,94.967z"/>
	<path class="line" style="&st0;" d="M215.338,94.967c-1.354,2.314-3.003,4.464-4.902,6.413h65.574v-6.413H215.338z"/>
	<path class="line" style="&st0;" d="M157.449,103.875H89.221v6.413h79.397C164.463,108.769,160.686,106.584,157.449,103.875z"/>
	<path class="line" style="&st0;" d="M207.782,103.875c-3.236,2.709-7.014,4.894-11.169,6.413h79.397v-6.413H207.782z"/>
	<path class="line" style="&st0;" d="M89.699,112.785c0.298,2.313,1.048,4.483,2.159,6.422l181.521-0.012c1.108-1.937,1.855-4.105,2.153-6.414
		L89.699,112.785z"/>
</g>
<g class="words">
	<path id="words" style="&st0;" d="M216.287,205.188c0.29,2.366-0.914,3.972-3.272,3.972c-4.952,0-5.041-7.531-5.041-17.476
		c0-9.237-0.029-16.769,2.742-16.769C215.579,174.915,213.722,184.27,216.287,205.188z M251.333,175.432
		c0-1.354-6.22-2.471-9.64-2.471c-6.014,0-23.701,2.648-23.701,11.474c0,5.586,7.417,5.119,14.592,5.119
		c6.5,0,13.531,1.368,13.531,5.208c0,2.03-7.547,5.737-17.245,5.737c-2.978,0-5.483-0.618-5.483-2.824
		c0-1.383,1.326-2.56,3.006-2.56c3.14,0,5.793,2.56,9.463,2.56c3.419,0,6.279-1.206,6.279-2.648c0-2.736-10.583-3.618-14.327-3.618
		c-4.569,0-7.252,3.913-7.252,6.266c0,3.295,4.422,9.797,15.742,9.797c7.074,0,15.123-3.295,15.123-11.474
		c0-8.635-6.593-10.545-14.371-10.282c-2.609,0.088-11.807-0.261-11.807-2.03C225.243,179.359,251.333,181.83,251.333,175.432z
		 M259.894,201.224c0-1.147-1.193-14.563,0.752-14.563c1.725,0,8.225,17.476,13.398,17.476c5.691,0,6.854-9.635,6.854-13.416
		c0-10.841-8.195-23.786-11.32-23.786c-1.238,0-1.061,1.412-1.061,2.119c0,0.371,3.249,9.696,4.554,16.239
		c0.884,4.428,1.356,8.87,0.619,8.87c-1.945,0-11.364-19.108-15.432-19.108c-4.761,0-5.704,22.05-5.704,24.404
		c0,3.177,1.769,7.37,4.245,7.37C259.231,206.829,259.894,202.372,259.894,201.224z M282.328,198.726
		c0,2.03,1.857,9.268,8.048,9.268s16.272-7.502,16.272-9.091c0-1.589-1.592-3.442-3.184-3.442s-11.497,2.648-12.205,2.648
		s-0.973-1.235-0.973-1.941c0-0.268,0.735-2.725,1.664-5.742c4.293-0.198,9.235-0.455,10.098-0.613
		c2.167-0.397,2.822-0.507,2.918-2.913c0.089-2.207-0.973-2.582-2.542-2.67c-0.843-0.047-4.954,0.162-8.645,0.369
		c0.867-2.788,1.593-5.204,1.833-6.078c3.741,0.079,7.749,0.04,10.504-0.182c2.292-0.185,3.979-1.677,3.979-2.736
		c0-1.059-1.326-2.206-2.034-2.912s-1.504-2.03-4.776-2.03s-21.004,2.471-20.496,3.795c0.751,1.956,0.946,3.285,4.046,3.619
		c0.551,0.06,1.292,0.131,2.196,0.186c-0.449,1.403-1.375,3.989-2.375,6.823c-1.692,0.338-2.784,1.292-2.784,3.008
		c0,1.199,0.141,2.152,0.883,2.471C283.43,194.435,282.328,197.857,282.328,198.726z M37.816,205.359v-1.858
		c-4.062,0-4.087-1.239-4.087-5.18V168.41c0-1.257,0.349-1.759,1.723-1.821c5.016,0.849,9.684,2.84,11.687,7.37l2.087-0.563
		l-2.009-9.25H13.129l-2.009,9.25l2.087,0.563c2.004-4.53,6.671-6.521,11.687-7.37c1.375,0.062,1.723,0.564,1.723,1.821v29.911
		c0,3.941-0.025,5.18-4.087,5.18v1.858H37.816z M60.708,163.128l-9.807,3.435v1.746c2.782,0.394,3.357,2.421,3.405,5.405v25.28
		c-0.144,4.392-1.439,4.617-3.165,4.617v1.745h12.635v-1.745c-1.438,0-3.021-0.338-3.069-3.66v-15.86
		c1.755-1.607,3.644-2.362,6.366-2.265c2.875,0.102,4.256,3.543,4.256,4.331v12.837c-0.144,4.392-1.438,4.617-3.165,4.617v1.745
		H80.55v-1.745c-1.438,0-3.021-0.338-3.068-3.66v-14.639c0-4.335-3.118-7.77-6.762-7.77c-3.453,0-7.422,0.965-10.011,3.33V163.128z
		 M204.686,189.217c0,17.152-17.422,27.448-38.736,27.448c-3.766,0-7.602-0.613-11.357-1.648c-0.007,4.039-0.737,5.268-3.677,5.268
		c-3.03,0-4.384-2.755-4.99-8.431c-13.012-5.881-23.31-15.611-23.31-20.165c0-5.037,10.83-10.788,22.859-13.401
		c0.121-10.461,0.583-17.843,2.346-17.843c2.832,0,4.637,6.355,5.5,16.629c1.548-0.138,3.083-0.212,4.582-0.212
		c9.846,0,24.895,3.619,24.895,11.474c0,2.442-2.786,7.104-6.544,7.104c-2.933,0-3.847-0.529-3.847-1.103
		c0-1.656,3.714-2.118,3.714-4.633c0-3.545-15.358-4.369-21.313-4.369c-0.328,0-0.669,0.003-1.019,0.009
		c0.089,2.668,0.134,5.497,0.134,8.464c0,6.251,0.231,11.091,0.422,14.824c3.3,0.56,6.847,0.886,10.633,0.886
		c16.626,0,30.953-7.561,30.953-20.388c0-20.358-33.636-43.512-69.512-43.512c-6.633,0-14.548,0.618-14.548,2.56
		c0,1.191,3.228,0.75,3.228,2.163c0,0.559-1.032,1.5-3.228,1.5c-0.781,0-4.555-0.839-4.555-2.56c0-0.662,2.123-5.251,2.609-6.133
		c0.681-1.236,6.424-3.443,17.157-3.443C173.938,139.703,204.686,169.005,204.686,189.217z M145.47,206.555
		c-0.139-3.892-0.141-8.62-0.141-14.223c0-2.182-0.001-4.32,0.001-6.392c-9.462,0.887-20.077,2.963-20.077,6.126
		C125.254,194.607,132.529,202.234,145.47,206.555z M230.804,152.072c0,4.648-9.994,16.328-19.81,16.328
		c-1.405,0-2.753-0.211-4.015-0.578c-0.925,1.919-1.941,2.785-2.972,2.785c-1.751,0-2.635-2.483-2.652-6.074
		c-1.655-1.697-2.654-3.802-2.654-6.018c0-7.12,10.76-15.887,18.749-15.887c3.757,0,6.486,2.122,6.78,3.474
		c0.303-0.015,0.606-0.032,0.914-0.032C228.15,146.07,230.804,148.13,230.804,152.072z M214.523,149.08
		c-1.223-0.264-2.646-0.291-3.294-0.291c-3.125,0-8.136,5.501-8.136,8.914c0,0.592,0.265,1.172,0.698,1.721
		C206.035,156.082,209.728,151.875,214.523,149.08z M226.396,152.159c0-1.677-1.149-2.383-2.918-2.383
		c-3.873,0-12.73,7.793-14.669,12.636c1.069,0.324,2.145,0.515,3.083,0.515C218.171,162.926,226.396,158.072,226.396,152.159z
		 M341.721,182.402c0,14.563-12.942,23.918-19.987,23.918c-0.553,0-1.143-0.117-1.75-0.32c-6.156,16.265-4.604,29.976-7.006,29.976
		c-1.769,0-6.367-4.325-6.367-7.237c0-10.114,2.549-20.011,6.194-28.638c-1.772-2.441-3.01-5.25-3.01-7.769
		c0-9.649,9.035-23.256,11.187-23.256c0.951,0,0.929,0.53,0.929,1.5c0,3.332-6.633,14.475-6.633,18.623
		c0,1.133,0.465,2.25,1.196,3.28c6.643-12.276,14.91-20.534,19.012-20.534C338.139,171.943,341.721,178.313,341.721,182.402z
		 M337.774,182.122c0-2.118-0.708-3.883-1.769-3.883c-1.152,0-5.708,4.401-12.275,18.858c0.366,0.07,0.721,0.118,1.044,0.118
		C329.55,197.214,337.774,191.536,337.774,182.122z M107.113,198.521c-4.232,5.367-7.445,7.563-12.145,7.563
		c-6.618,0-12.372-5.236-12.372-13.457c0-3.66,1.103-7.319,3.117-10.191c2.254-3.209,6.204-5.219,9.753-5.219
		c6.666,0,10.969,4.057,10.826,12.373H87.991c-0.447,4.758,2.449,11.984,9.411,11.984c2.733,0,5.479-0.727,8.561-4.236
		L107.113,198.521z M88.268,186.734h11.251c0.109-3.88-3.922-6.338-5.455-6.399C91.065,180.215,88.268,182.98,88.268,186.734z"/>
</g>
</svg>
