<?xml version="1.0" encoding="utf-8"?>
<?xml-stylesheet href="../css/style.css" type="text/css"?>

<!-- Generator: Adobe Illustrator 16.2.0, SVG Export Plug-In . SVG Version: 6.00 Build 0)  -->
<!DOCTYPE svg PUBLIC "-//W3C//DTD SVG 1.1//EN" "http://www.w3.org/Graphics/SVG/1.1/DTD/svg11.dtd">
<svg version="1.1" id="Слой_1" xmlns="http://www.w3.org/2000/svg" xmlns:xlink="http://www.w3.org/1999/xlink" x="0px" y="0px"
	 width="383px" height="290px" viewBox="0 -21 383 290" enable-background="new 0 -21 383 290" xml:space="preserve">
<g>
	<path class="rightHand" fill="#A9372E" d="M134.018,176.424c3.711-2.678,6.141-6.932,7.816-11.168
		c1.609-0.361,3.109-1.817,3.711-3.021c1.101-0.122,30.58-9.064,31.643-9.339c5-1,6.938-2.375,9.438-3.813
		c2.236-1.286,0.188-2.5-2.25-2.063c-4.426,1.092-36.495,5.803-40.537,5.591c-0.739-1.331-2.004-2.595-3.416-3.383
		c-1.084-1.478-2.595-2.922-4.073-4.138c0.165-5.912,3.191-8.647,2.85-11.367c-0.23-1.822-2.07-4.381-5.051-4.397
		c-8.654,0.492-9.836,9.492-9.82,15.601c-4.482,3.252-7.947,9.722-8.473,13.728c-0.69,1.15-7.981,11.021-5.189,17.375
		c-0.493,4.105-0.526,9.162,2.462,12.283c1.15,4.252,4.729,4.359,6.24,3.744C122.095,190.957,123.831,183.84,134.018,176.424z
		 M143.5,152.483c-0.812,0.137-2.754,0.154-3.745,0.12c-4.483,0.446-3.115,7.661,0.826,9.474c1.019,0.396,3.107,0.413,4.562,0.294
		c-3.941,5.013-12.385,0.978-12.877-5.646C131.772,150.1,139.702,146.878,143.5,152.483z M116.587,191.922
		c-2.5-0.867-2.976-3.971-2.594-7.361c-0.834,2.676-1.419,4.058-1.041,0.869c-0.613,5.166-2.493-2.66-2-8.375
		c-0.507,0.252,3.417-9.275,4.463-11.229c-2.003,2.104-3.596,5.545-4.51,8.788c-0.821-5.997,5.561-14.941,7.039-17.449
		c-0.482,0.12-0.898,0.438-1.127,0.635c1.905-5.354,5.09-9.688,9.524-13.137c0-0.264-0.92,0.064-1.018,0.195
		c-0.69-5.079,1.992-13.354,8.505-13.792c1.375-0.092,3.95,0.84,4.139,3.646c0.074,2.011-2.223,4.915-2.66,10.509
		c-1.051-0.624-2.65-1.127-3.777-0.766c3.021,0.919,5.189,2.77,7.028,4.871c-6.338-0.536-8.473,4.971-8.309,7.259
		c-8.156-0.942-10.565,10.204-10.018,11.461c0.658-3.939,4.675-11.561,10.018-10.871c0.394,3.416,2.233,6.733,5.354,8.177
		c1.542,0.625,3.185,1.15,4.992,0.89c-2.518,6.59-7.291,9.557-11.889,13.596c-3.711,3.151-6.076,7.192-8.736,10.938
		C119.107,192.006,117.769,192.332,116.587,191.922z M118.333,172.667c-3.196,2.956-5.334,8.883-4.667,13.333
		c-1-6.666,0.321-8.641,4-13.666c0.164,2.693,0.159,0.387,1.046,2.851L118.333,172.667z"/>
	<path class="leftHand" id="leftHand" fill="#A9372E" d="M241.607,178.046c3.178-0.181,10.822,8.466,6.146,16.996
		C249.395,190.009,248.523,181.896,241.607,178.046z M231.311,192.909c-1.688-1.233-2.765-3.346-2.695-5.572
		c-6.913-4.808-5.643-4.725-12.66-10.096c-6.59-5.935-16.127-17.521-15.126-18.923c1.086-1.52,0.991-2.705,2.827-3.401
		c4.037,4.945,27.527,20.279,32.048,21.936c2.067-0.888,6.289-2.162,7.981,0.729c2.529-0.403,5.114-0.648,7.578-0.313
		c0.803-0.438,1.456-1.005,2.221-1.489c3.248-3.604,6.138-11.386,10.271-9.48c5.845,2.694,6.906,15.22-2.719,17.688
		c-0.106,0.15-0.394,0.4-0.659,0.52c0.745,6.362,0.288,13.806-0.352,18.302c1.039,10.653-0.836,17.353-4.332,18.003
		c-1.836,7.004-6.402,7.048-9.205,4.041c-4.85,0.396-6.28-10.281-9.908-15.978C233.77,204.178,231.357,198.767,231.311,192.909z
		 M255.617,203.792c-1.975,1.354-4.725,2.604-6.428,3.24c2.385,2.907,3.918,15.104-1.563,17.668
		C255.977,231.342,256.619,208.507,255.617,203.792z M232.186,192.526c-0.129,8.5,5.366,14.694,8.433,21.807
		c1.723,3.317,2.508,9.397,6.047,9.425c3.537,0.026,5.166-10.317,1.69-16.516c-0.584,0.167-1.26,0.322-1.979,0.063
		c2.979-1.102,8.387-3.468,10.654-5.259c-0.094,0.464-0.553,1.002-0.782,1.263c1.269,2.882,0.687,12.135-0.24,16.632
		c3.362-1.871,3.298-10.918,3.164-16.324c-0.067-2.841,1.188-5.934,0.32-18.529c-0.82,0.308-2.095,0.412-2.558,0.208
		c0.844-0.387,2.201-0.771,2.763-1.163c-0.39-0.014-1.181-0.066-1.482-0.344c9.478-1.171,11.642-11.459,5.806-16.192
		c-3.147-2.555-6.181,4.062-7.867,6.34c0.285-0.104,0.688-0.413,1.263-0.565c-0.419,0.993-3.699,3.407-4.624,3.929
		c0.594,0.143,1.445,0.313,2.35,0.804C237.714,176.53,232.835,184.775,232.186,192.526z M231.258,191.522
		c0.592-6.429,5.057-11.813,11.697-13.69c-2.578-3.036-8.4,0.442-10.626,3.223C230.057,183.896,227.921,188.434,231.258,191.522z"/>
	<path class="rightEar" fill="#A9372E" d="M236.748,123.433c-0.803,3.903-2.596,7.715-2.768,11.706
		c0.004,0.006,0.011,0.008,0.016,0.023c2.779,18.601,27.318,18.802,31.469-0.792C269.809,113.858,246.463,108.042,236.748,123.433z"
		/>
	<path class="leftEar" fill="#A9372E" d="M222.557,102.509c1.397,1.009,2.851,1.963,4.295,2.905c2.246,1.463,4.664,2.881,6.397,4.965
		c16.046,4.684,26.793-18.877,10.491-29.27c-17.196-10.964-31.077,6.663-24.412,19.542
		C220.501,101.037,221.57,101.799,222.557,102.509z"/>
	<path class="body" fill="#A9372E" d="M200.093,108.972c-3.948-1.982-11.117,12.136-7.177,15.037c0.533,0.392,1.747,0.509,2.262-0.072
		c0.932-0.479,2.543-2.857,2.748-3.813C198.855,118.092,202.991,110.428,200.093,108.972z M197.738,118.814
		c-1.006-2.78-4.805,1.807-4.104,4.795c-1.984-0.109-1.146-5.379,0.554-8.718c1.678-3.3,4.354-6.072,5.621-5.318
		C201.652,110.673,198.594,117.172,197.738,118.814z M137.341,162.495c-0.086,0.084-0.167,0.186-0.252,0.274
		C137.262,162.445,137.359,162.322,137.341,162.495z M224.572,222.96c-7.94-2.234-22.23-0.063-26.16,3.929
		C206.023,223.588,216.188,221.843,224.572,222.96z M185.934,159.885c-1.619-0.351-3.475,2.565-4.354,5.622
		c-0.983,3.414,0.126,6.549,1.194,6.906c1.223,0.412,3.119-2.471,4.076-5.591C187.807,163.704,187.674,160.261,185.934,159.885z
		 M179.412,219.166c-3.365-5.033-9.04-8.44-10.574-10.592C171.834,209.444,178.912,216.342,179.412,219.166z M265.594,209.461
		c-2.234,15.699-19.707,20.479-28.41,17.046c-6.471-4.796-15.05-5.847-22.11-10.953c0-3.794-4.064-5.698-7.054-6.421
		c-1.276-3.504-16.146-35.691-3.43-48.939c0.524-1.785,1.86-3.351,3.139-4.633c1.321-1.327,2.791-2.997,4.676-3.498
		c-0.016-0.024-0.034-0.051-0.049-0.077c10.401-0.84,19.111-8.484,22.568-15.929c0.055-4.1,1.887-8.002,2.742-11.995
		c-0.105-5.329-1.828-11.337-4.1-14.604c-1.801-2.204-4.385-3.627-6.719-5.186c-1.371-0.914-2.748-1.827-4.093-2.778
		c-0.844-0.599-1.749-1.239-2.729-1.624c0.027,0.052,0.051,0.104,0.08,0.156c-20.108-8.08-34.313,8.217-35.898,19.017
		c-0.426-0.131-0.886-0.23-1.346-0.328c0.597-17.122-19.126-8.499-9.525,5.518c-2.844,7.56,3.859,16.396,12.273,18.983
		c0.667,0.635,1.434,1.894,2.112,2.431c-1.209,0.667-2.568,1.097-3.757,1.868c-0.039,0.025-0.08,0.043-0.119,0.069
		c-0.447,0.186-1.046,0.377-1.738,0.567c-2.304,1.639-4.59,3.294-6.752,5.12c-2.228,1.882-3.559,4.408-5.143,6.804
		c-0.044,0.065-0.111,0.07-0.172,0.053c-2.187,3.706-3.539,9.375-2.748,14.485c-0.656,3.384-3.032,9.36-4.171,10.871
		c2.004,3.12,5.157,6.012,8.638,7.62c0.559,3.624,1.445,7.291,2.596,10.74c-0.854,0.623-1.281,1.772-1.578,2.791
		c-4.006-1.084-7.816-2.563-11.986-3.252c-6.799-1.479-14.617,0.128-17.998,5.32c-3.065,4.708-2.069,9.524,0.459,13.399
		c8.43,12.559,33.281,16.85,46.703,8.375c3.932,13.466,21.486,25.681,40.332,20.593c18.178-4.906,14.965-17.462,9.295-22.465
		C250.033,230.842,266.096,222.278,265.594,209.461z M209.365,212.844c-0.229-0.919-0.525-1.773-0.854-2.66
		c2.897,0.779,7.614,3.384,4.695,7.159c-3.489,4.516-17.678,3.613-19.277-3.612c-0.255-1.14,0.936-3.047,3.118-3.843
		c0.589,0.953,0.955,1.905,1.74,2.85C200.538,214.73,208.355,216.662,209.365,212.844z M192.813,199.346
		c0.996,2.944,2.563,6.602,3.976,9.787c-1.313,0.36-2.661,1.346-3.151,2.396c-0.691-0.427-1.382-1.019-2.005-1.411
		c-0.449-2.968-3.646-5.06-6.273-5.944c-1.38-2.901-2.529-6.438-3.58-9.656C184.684,197.194,188.729,198.963,192.813,199.346z
		 M181.744,192.339c-0.402-2.033,7.193-0.188,8.9,0.602c0.592,1.773,1.479,4.149,1.807,5.321
		C188.004,197.818,182.168,194.47,181.744,192.339z M201.91,157.043c0.622,0.391,1.359,0.896,1.882,1.574
		c0.112,0.207,0.435,0.691,0.551,0.938C203.948,159.485,203.021,158.112,201.91,157.043z M187.197,143.775
		c1.411,0.428,2.856,0.657,4.269,1.052c3.745,3.021,7.587,9.031,13.63,7.356c7.192-2.168,6.371-10.379,9.395-15.765
		c0.525-0.657,0.92-1.543,1.642-1.839c1.772,0.427,3.481,1.183,4.894,2.396c-0.426-3.728-9.047-5.058-11.594-3.087
		c1.397,0,3.598,0.017,4.73,0.296c-17.457,20.592-43.978,3.76-40.036-9.032c4.007,3.367,8.9,0.246,8.736-5.518
		c3.316,0.46,6.076,2.803,7.619,5.595c0.088-1.435-1.018-2.638-1.707-3.427c0.473-0.498,1.186-1.479,1.679-2.761
		c1.149-2.985,2.893-7.772,1.386-8.516c-1.889-0.931-5.26,4.324-5.791,9.175c-0.296,0-0.592-0.265-0.92-0.362
		c1.084-7.851,7.127-14.714,13.763-18.212c0.114,0.673,0.114,1.921-0.147,2.628c3.315-2.563,7.591-6.034,12.233-4.517
		c9.062,2.962-0.888,23.057-5.944,29.82c9.968-5.846,25.174-3.315,24.436,8.671c-0.571,9.278-13.104,12.907-17.243,13.434
		c0.724-1.184,1.121-1.79,1.691-4.353c-6.814,13.318-15.684,6.454-18.736,3.596c-1.084-1.115-2.596-2.856-3.875-3.547
		c0.131,0.46,0.525,0.624,0.753,1.02C190.119,146.862,188.461,145.565,187.197,143.775z M211.073,143.25
		c-2.218,8.917-9.048,10.395-14.024,5.518c1.381-2.299,4.237-2.989,6.832-2.759c-0.771,0.919-1.281,2.003-1.297,2.972
		C203.404,147.962,206.064,143.808,211.073,143.25z M187.492,120.62c-0.295-0.197-0.646-0.438-0.887-0.559
		c0.186-3.108,3.172-9.356,4.795-9.01c1.12,0.24-0.69,5.069-1.445,7.204C189.31,115.628,187.361,119.022,187.492,120.62z
		 M176.756,152.494c1.426-1.401,3.146-2.626,4.99-3.473c0.24-0.108,0.478-0.225,0.721-0.32c-2.824,1.675-5.32,3.974-7.783,6.239
		C175.258,154.097,175.965,153.272,176.756,152.494z M164.174,185.552c1.773-2.661,2.627-5.78,3.514-8.901
		c0.427,1.117,0.789,2.168,1.412,3.121c-0.477-3.038-3.974-14.741,5.518-23.878c12.383-4.959,22.301,4.303,24.896,10.543
		c-3.037,10.657-0.132,21.939,2.596,30.02c-5.174-2.233-18.819-8.228-20.921-5.059c-0.821-1.938-1.134-4.646-2.185-6.618
		c-0.328,1.167,0.181,2.35,0.279,3.235c-1.74-0.427-3.416-1.479-5.09-2.2c1.133,1.461,3.35,2.528,5.287,3.087
		c0.328,1.412,0.525,3.448,1.576,4.795C172.007,194.682,165.043,187.226,164.174,185.552z M174.684,204.83
		c0.385,0.795,0.699,1.813,1.118,2.46c3.274,3.344,10.212,4.331,10.935,0.464c-0.164-0.724-0.46-1.544-0.788-2.3
		c4.157,2.083,5.122,4.126,4.868,5.642c-1.041,6.187-16.197,3.641-17.127-3.421C173.566,206.747,173.87,205.738,174.684,204.83z
		 M189.561,229.232c-4.138,3.404-20.395,6.811-32.547,1.445c-14.531-6.415-18.567-16.147-11.232-23.154
		c7.334-7.007,21.906-1.216,26.833,0.032c0.058,7.749,17.7,11.692,19.017,3.712c0.591,0.295,1.116,0.755,1.609,1.215
		c-0.265,0.821-0.229,1.773,0,2.596C188.641,218.065,188.674,224.142,189.561,229.232z M225.591,250.187
		c-17.62,2.41-31.18-9.185-34.552-20.526c-1.215-4.663-1.521-10.631,2.596-13.762c2.922,4.203,8.406,5.78,13.793,5.287
		c2.924-0.46,6.24-1.707,7.291-4.631c6.578,4.691,15.866,6.119,21.905,11.017C247.329,235.941,244.341,247.622,225.591,250.187z
		 M171.16,170.526c-2.518-0.993,1.893-12.632,4.533-11.471C177.982,160.062,172.851,171.191,171.16,170.526z M187.684,167.333
		c-0.982,3.301-3.018,6.205-4.938,5.696c-4.928-1.305-1.041-14.795,3.375-13.844C188.598,159.72,188.75,163.756,187.684,167.333z
		 M185.934,159.885c-1.619-0.351-3.475,2.565-4.354,5.622c-0.983,3.414,0.126,6.549,1.194,6.906
		c1.223,0.412,3.119-2.471,4.076-5.591C187.807,163.704,187.674,160.261,185.934,159.885z"/>
</g>
</svg>
