<?xml version="1.0" encoding="utf-8"?>
<?xml-stylesheet href="../css/style.css" type="text/css"?>

<!-- Generator: Adobe Illustrator 16.2.0, SVG Export Plug-In . SVG Version: 6.00 Build 0)  -->
<!DOCTYPE svg PUBLIC "-//W3C//DTD SVG 1.1//EN" "http://www.w3.org/Graphics/SVG/1.1/DTD/svg11.dtd" [
	<!ENTITY st0 "fill:none;stroke:#1DAA68;stroke-width:3;stroke-miterlimit:10;">
]>
<svg version="1.1" id="Слой_1" xmlns="http://www.w3.org/2000/svg" xmlns:xlink="http://www.w3.org/1999/xlink" x="0px" y="0px"
	 width="500px" height="200px" viewBox="0 0 500 200" style="enable-background:new 0 0 500 200;" xml:space="preserve">
<path class="greenWords" style="&st0;" d="M93.239,28.184l-21.656,37.23c-1.617,2.765-3.574,4.148-5.871,4.148c-1.758,0-3.117-0.545-4.078-1.635
	c-0.961-1.09-1.441-2.642-1.441-4.658l0.914-25.207L48.31,65.415c-1.289,2.765-3.152,4.148-5.59,4.148
	c-1.758,0-3.135-0.557-4.131-1.67c-0.997-1.113-1.494-2.654-1.494-4.623l-0.738-24.293c0-4.289-0.369-7.177-1.107-8.666
	c-0.738-1.488-2.174-2.232-4.307-2.232c-1.898,0-3.785,1.002-5.66,3.006c-1.875,2.004-2.813,4.025-2.813,6.064
	c0,1.711,0.527,3.094,1.582,4.148s2.438,1.582,4.148,1.582c0.492,0,0.961-0.012,1.406-0.035c0.445-0.023,0.726-0.035,0.844-0.035
	c2.859,0,4.289,1.184,4.289,3.551c0,1.57-0.809,2.877-2.426,3.92c-1.617,1.043-3.656,1.564-6.117,1.564
	c-3.797,0-6.938-1.301-9.422-3.902c-2.484-2.602-3.727-5.894-3.727-9.879c0-4.852,1.974-9.193,5.924-13.025
	c3.949-3.832,8.42-5.748,13.412-5.748c4.57,0,7.88,1.342,9.932,4.025c2.051,2.684,3.076,6.979,3.076,12.885l0.035,2.777
	l0.211,12.234l12.551-27.246c1.406-3.117,3.551-4.676,6.434-4.676c1.64,0,2.965,0.487,3.973,1.459
	c1.007,0.973,1.512,2.268,1.512,3.885l-0.035,0.387l-0.633,26.754l15.82-27.246l0.738-1.371c1.289-2.25,3.27-3.375,5.941-3.375
	h6.855c3.257,0,4.887,1.148,4.887,3.445c0,1.547-0.575,2.76-1.723,3.639c-1.148,0.879-2.742,1.318-4.781,1.318H93.239z
	 M102.731,48.575l-1.195,2.953c-1.078,2.625-2.484,3.938-4.219,3.938c-1.055,0-1.934-0.316-2.637-0.949s-1.055-1.418-1.055-2.355
	c0-0.539,0.258-1.453,0.773-2.742l3.973-9.809c0.961-2.367,2.32-3.551,4.078-3.551c1.734,0,2.8,0.821,3.199,2.461l0.281,1.09
	c0.141,0.563,0.352,0.914,0.633,1.055s0.972,0.211,2.074,0.211h8.227c3.07,0,4.605,1.078,4.605,3.234
	c0,2.977-1.946,4.465-5.836,4.465l-0.387,0.352c-3.727,3.563-5.59,6.316-5.59,8.262c0,1.946,1.078,2.918,3.234,2.918h4.43
	c2.976,0,4.465,1.032,4.465,3.094c0,1.454-0.522,2.579-1.564,3.375c-1.043,0.797-2.502,1.195-4.377,1.195h-6.891
	c-2.344,0-4.26-0.809-5.748-2.426c-1.489-1.617-2.232-3.714-2.232-6.293c0-1.64,0.398-3.234,1.195-4.781
	c0.796-1.547,2.203-3.445,4.219-5.695H102.731z M133.106,60.106h3.973c2.953,0,4.43,1.043,4.43,3.129c0,1.43-0.522,2.543-1.564,3.34
	c-1.043,0.797-2.502,1.195-4.377,1.195h-5.59c-2.063,0-3.686-0.422-4.869-1.266c-1.184-0.844-1.775-1.992-1.775-3.445
	c0-0.773,0.246-1.758,0.738-2.953l5.801-14.273l0.387-0.984c1.078-2.648,2.813-3.973,5.203-3.973c0.984,0,1.833,0.329,2.549,0.984
	c0.715,0.656,1.072,1.441,1.072,2.355c0,0.75-0.316,1.898-0.949,3.445L133.106,60.106z M137.747,29.661
	c1.359,0,2.514,0.475,3.463,1.424s1.424,2.104,1.424,3.463c0,1.359-0.475,2.514-1.424,3.463s-2.104,1.424-3.463,1.424
	c-1.359,0-2.514-0.475-3.463-1.424s-1.424-2.104-1.424-3.463c0-1.359,0.475-2.514,1.424-3.463S136.388,29.661,137.747,29.661z
	 M160.423,40.875h1.09c2.976,0,4.465,1.043,4.465,3.129c0,1.43-0.527,2.543-1.582,3.34c-1.055,0.797-2.508,1.195-4.359,1.195h-2.566
	l-4.711,11.566h3.938c2.976,0,4.465,1.043,4.465,3.129c0,1.43-0.522,2.543-1.564,3.34c-1.043,0.797-2.502,1.195-4.377,1.195h-6.293
	c-1.781,0-3.194-0.41-4.236-1.23c-1.043-0.82-1.564-1.934-1.564-3.34c0-0.867,0.211-1.828,0.633-2.883l0.668-1.547l4.148-10.23
	h-0.527c-2.625,0-3.938-1.02-3.938-3.059c0-1.453,0.521-2.584,1.564-3.393c1.042-0.809,2.501-1.213,4.377-1.213h1.617l1.863-4.605
	l0.387-0.949c1.102-2.602,2.835-3.902,5.203-3.902c0.961,0,1.787,0.322,2.479,0.967c0.691,0.645,1.037,1.424,1.037,2.338
	c0,0.891-0.305,2.016-0.914,3.375L160.423,40.875z M172.938,57.469c0,1.758,1.324,2.637,3.973,2.637h10.441
	c2.953,0,4.43,1.043,4.43,3.129c0,1.43-0.522,2.543-1.564,3.34c-1.043,0.797-2.502,1.195-4.377,1.195h-9.949
	c-3.704,0-6.521-0.914-8.455-2.742s-2.9-4.5-2.9-8.016c0-4.523,1.529-8.425,4.588-11.707c3.059-3.281,6.697-4.922,10.916-4.922
	c3.07,0,5.537,0.803,7.4,2.408c1.863,1.605,2.795,3.721,2.795,6.346c0,3.164-1.289,5.508-3.867,7.031
	c-1.43,0.867-3.563,1.301-6.398,1.301H172.938z M174.626,51.071h3.867c2.508,0,3.727-0.55,3.656-1.652
	c-0.07-1.242-0.879-1.863-2.426-1.863C177.567,47.555,175.868,48.728,174.626,51.071z M235.13,60.106h3.867
	c2.953,0,4.43,1.032,4.43,3.094c0,1.43-0.527,2.549-1.582,3.357s-2.508,1.213-4.359,1.213h-4.5c-2.016,0-3.387-0.785-4.113-2.355
	c-1.758,1.57-3.457,2.355-5.098,2.355h-4.008c-2.579,0-4.658-0.919-6.24-2.76c-1.582-1.84-2.373-4.248-2.373-7.225
	c0-4.5,1.552-8.525,4.658-12.076c3.105-3.551,6.615-5.326,10.529-5.326c3,0,5.191,1.043,6.574,3.129
	c1.172-1.758,2.707-2.637,4.605-2.637c1.031,0,1.893,0.329,2.584,0.984c0.691,0.656,1.037,1.465,1.037,2.426
	c0,0.656-0.188,1.441-0.563,2.355l-0.387,0.949L235.13,60.106z M222.368,60.282h0.879c1.922,0,3.199-0.785,3.832-2.355l2.461-6.082
	c0.328-0.796,0.492-1.464,0.492-2.004c0-0.633-0.311-1.183-0.932-1.652c-0.621-0.469-1.365-0.703-2.232-0.703
	c-1.711,0-3.375,0.997-4.992,2.988c-1.617,1.992-2.426,4.055-2.426,6.188C219.45,59.075,220.422,60.282,222.368,60.282z
	 M305.056,60.106h4.184c2.953,0,4.43,1.043,4.43,3.129c0,1.43-0.521,2.543-1.564,3.34c-1.043,0.797-2.49,1.195-4.342,1.195h-7.137
	c-1.547,0-2.801-0.41-3.762-1.23c-0.961-0.82-1.441-1.898-1.441-3.234c0-0.914,0.316-2.156,0.949-3.727l3.305-8.051
	c0.188-0.469,0.281-0.902,0.281-1.301c0-1.523-0.773-2.285-2.32-2.285c-1.195,0-2.379,0.54-3.551,1.617
	c-1.172,1.078-2.109,2.508-2.813,4.289l-3.938,9.703c-1.289,3.141-3.164,4.711-5.625,4.711c-0.961,0-1.781-0.316-2.461-0.949
	s-1.02-1.383-1.02-2.25c0-0.68,0.176-1.477,0.527-2.391l0.387-0.949l3.973-9.809c0.352-0.867,0.527-1.547,0.527-2.039
	c0-0.515-0.234-0.967-0.703-1.354s-1.02-0.58-1.652-0.58c-2.531,0-4.535,1.828-6.012,5.484l-4.113,10.09
	c-1.289,3.164-3.152,4.746-5.59,4.746c-0.961,0-1.787-0.311-2.479-0.932s-1.037-1.376-1.037-2.268c0-0.703,0.176-1.5,0.527-2.391
	l0.387-0.949l6.996-17.227c0.984-2.414,2.461-3.621,4.43-3.621c2.039,0,3.305,0.961,3.797,2.883
	c1.594-1.359,2.889-2.262,3.885-2.707c0.996-0.445,2.221-0.668,3.674-0.668c3.141,0,5.496,1.371,7.066,4.113
	c2.625-2.742,5.578-4.113,8.859-4.113c2.25,0,4.131,0.65,5.643,1.951s2.268,2.9,2.268,4.799c0,1.195-0.258,2.426-0.773,3.691
	L305.056,60.106z M323.442,57.469c0,1.758,1.324,2.637,3.973,2.637h10.441c2.953,0,4.43,1.043,4.43,3.129
	c0,1.43-0.521,2.543-1.564,3.34c-1.043,0.797-2.502,1.195-4.377,1.195h-9.949c-3.703,0-6.521-0.914-8.455-2.742s-2.9-4.5-2.9-8.016
	c0-4.523,1.529-8.425,4.588-11.707c3.059-3.281,6.697-4.922,10.916-4.922c3.07,0,5.537,0.803,7.4,2.408
	c1.863,1.605,2.795,3.721,2.795,6.346c0,3.164-1.289,5.508-3.867,7.031c-1.43,0.867-3.563,1.301-6.398,1.301H323.442z
	 M325.13,51.071h3.867c2.508,0,3.727-0.55,3.656-1.652c-0.07-1.242-0.879-1.863-2.426-1.863
	C328.071,47.555,326.372,48.728,325.13,51.071z M355.329,50.473l-0.668,1.617c-1.031,2.32-2.496,3.48-4.395,3.48
	c-0.961,0-1.822-0.334-2.584-1.002s-1.143-1.436-1.143-2.303c0-0.82,0.34-1.91,1.02-3.27l4.676-9.492
	c1.148-2.273,2.578-3.41,4.289-3.41c0.914,0,1.699,0.299,2.355,0.896s0.984,1.307,0.984,2.127c0,0.211-0.07,0.668-0.211,1.371
	c-0.094,0.516-0.141,0.973-0.141,1.371c0,1.477,0.551,2.988,1.652,4.535l2.004,2.777c2.039,2.836,3.059,5.578,3.059,8.227
	c0,2.953-1.102,5.42-3.305,7.4c-2.203,1.981-4.945,2.971-8.227,2.971h-7.348c-2.977,0-4.465-1.031-4.465-3.094
	c0-1.429,0.527-2.549,1.582-3.357s2.508-1.213,4.359-1.213h4.078c3.258,0,4.887-1.183,4.887-3.551c0-0.867-0.305-1.886-0.914-3.059
	L355.329,50.473z M380.466,50.473l-0.668,1.617c-1.031,2.32-2.496,3.48-4.395,3.48c-0.961,0-1.822-0.334-2.584-1.002
	s-1.143-1.436-1.143-2.303c0-0.82,0.34-1.91,1.02-3.27l4.676-9.492c1.148-2.273,2.578-3.41,4.289-3.41
	c0.914,0,1.699,0.299,2.355,0.896s0.984,1.307,0.984,2.127c0,0.211-0.07,0.668-0.211,1.371c-0.094,0.516-0.141,0.973-0.141,1.371
	c0,1.477,0.551,2.988,1.652,4.535l2.004,2.777c2.039,2.836,3.059,5.578,3.059,8.227c0,2.953-1.102,5.42-3.305,7.4
	c-2.203,1.981-4.945,2.971-8.227,2.971h-7.348c-2.977,0-4.465-1.031-4.465-3.094c0-1.429,0.527-2.549,1.582-3.357
	s2.508-1.213,4.359-1.213h4.078c3.258,0,4.887-1.183,4.887-3.551c0-0.867-0.305-1.886-0.914-3.059L380.466,50.473z M417.907,60.106
	h3.867c2.953,0,4.43,1.032,4.43,3.094c0,1.43-0.527,2.549-1.582,3.357s-2.508,1.213-4.359,1.213h-4.5
	c-2.016,0-3.387-0.785-4.113-2.355c-1.758,1.57-3.457,2.355-5.098,2.355h-4.008c-2.578,0-4.658-0.919-6.24-2.76
	c-1.582-1.84-2.373-4.248-2.373-7.225c0-4.5,1.553-8.525,4.658-12.076s6.615-5.326,10.529-5.326c3,0,5.191,1.043,6.574,3.129
	c1.172-1.758,2.707-2.637,4.605-2.637c1.031,0,1.893,0.329,2.584,0.984c0.691,0.656,1.037,1.465,1.037,2.426
	c0,0.656-0.188,1.441-0.563,2.355l-0.387,0.949L417.907,60.106z M405.146,60.282h0.879c1.922,0,3.199-0.785,3.832-2.355l2.461-6.082
	c0.328-0.796,0.492-1.464,0.492-2.004c0-0.633-0.311-1.183-0.932-1.652c-0.621-0.469-1.365-0.703-2.232-0.703
	c-1.711,0-3.375,0.997-4.992,2.988c-1.617,1.992-2.426,4.055-2.426,6.188C402.228,59.075,403.2,60.282,405.146,60.282z
	 M448.247,68.754h4.219c2.977,0,4.465,1.031,4.465,3.094c0,1.429-0.527,2.549-1.582,3.357s-2.508,1.213-4.359,1.213h-5.836
	l-1.477,3.621c-3.586,8.789-8.824,13.184-15.715,13.184c-3.609,0-6.615-1.113-9.018-3.34c-2.402-2.227-3.604-5.016-3.604-8.367
	c0-2.18,0.58-4.225,1.74-6.135c1.16-1.911,2.748-3.428,4.764-4.553c2.484-1.383,5.824-2.074,10.02-2.074h7.559l1.09-2.742
	c-1.477,0.891-2.871,1.336-4.184,1.336c-2.508,0-4.541-0.867-6.1-2.602c-1.559-1.734-2.338-3.996-2.338-6.785
	c0-4.5,1.582-8.555,4.746-12.164c3.164-3.609,6.715-5.414,10.652-5.414c2.883,0,5.039,0.938,6.469,2.813
	c1.102-1.875,2.66-2.813,4.676-2.813c0.984,0,1.822,0.322,2.514,0.967c0.691,0.645,1.037,1.424,1.037,2.338
	c0,0.727-0.305,1.84-0.914,3.34L448.247,68.754z M436.294,76.418h-6.082c-2.109,0-3.744,0.445-4.904,1.336
	c-1.16,0.891-1.74,2.145-1.74,3.762c0,1.102,0.398,2.039,1.195,2.813s1.781,1.16,2.953,1.16c1.688,0,3.164-0.668,4.43-2.004
	S434.794,79.793,436.294,76.418z M443.677,58.208l2.848-6.961c0.234-0.585,0.352-1.066,0.352-1.441c0-0.703-0.311-1.289-0.932-1.758
	c-0.621-0.469-1.4-0.703-2.338-0.703c-1.688,0-3.299,0.967-4.834,2.9s-2.303,3.979-2.303,6.135c0,2.461,1.148,3.691,3.445,3.691
	C441.907,60.071,443.161,59.45,443.677,58.208z M467.337,57.469c0,1.758,1.324,2.637,3.973,2.637h10.441
	c2.953,0,4.43,1.043,4.43,3.129c0,1.43-0.521,2.543-1.564,3.34c-1.043,0.797-2.502,1.195-4.377,1.195h-9.949
	c-3.703,0-6.521-0.914-8.455-2.742s-2.9-4.5-2.9-8.016c0-4.523,1.529-8.425,4.588-11.707c3.059-3.281,6.697-4.922,10.916-4.922
	c3.07,0,5.537,0.803,7.4,2.408c1.863,1.605,2.795,3.721,2.795,6.346c0,3.164-1.289,5.508-3.867,7.031
	c-1.43,0.867-3.563,1.301-6.398,1.301H467.337z M469.024,51.071h3.867c2.508,0,3.727-0.55,3.656-1.652
	c-0.07-1.242-0.879-1.863-2.426-1.863C471.966,47.555,470.267,48.728,469.024,51.071z M117.005,127.275h1.09
	c2.976,0,4.465,1.043,4.465,3.129c0,1.43-0.527,2.543-1.582,3.34s-2.508,1.195-4.359,1.195h-2.566l-4.711,11.566h3.938
	c2.976,0,4.465,1.043,4.465,3.129c0,1.43-0.522,2.543-1.564,3.34c-1.043,0.797-2.502,1.195-4.377,1.195h-6.293
	c-1.781,0-3.194-0.41-4.236-1.23c-1.043-0.82-1.564-1.934-1.564-3.34c0-0.867,0.211-1.828,0.633-2.883l0.668-1.547l4.148-10.23
	h-0.527c-2.625,0-3.938-1.02-3.938-3.059c0-1.453,0.521-2.584,1.564-3.393c1.042-0.809,2.501-1.213,4.377-1.213h1.617l1.863-4.605
	l0.387-0.949c1.102-2.602,2.835-3.902,5.203-3.902c0.961,0,1.787,0.322,2.479,0.967c0.691,0.645,1.037,1.424,1.037,2.338
	c0,0.891-0.305,2.016-0.914,3.375L117.005,127.275z M137.36,126.783c3.398,0,6.193,1.078,8.385,3.234
	c2.191,2.156,3.287,4.898,3.287,8.227c0,2.508-0.575,4.998-1.723,7.471c-1.148,2.473-2.637,4.447-4.465,5.924
	c-1.219,0.961-2.479,1.623-3.779,1.986s-3.124,0.545-5.467,0.545c-3.82,0-6.398-0.457-7.734-1.371
	c-3.141-2.156-4.711-5.344-4.711-9.563c0-4.453,1.605-8.309,4.816-11.566C129.181,128.412,132.978,126.783,137.36,126.783z
	 M136.517,134.271c-1.735,0-3.317,0.855-4.746,2.566c-1.43,1.711-2.145,3.598-2.145,5.66c0,2.719,1.523,4.078,4.57,4.078
	c1.781,0,3.152-0.551,4.113-1.652c1.594-1.805,2.391-3.867,2.391-6.188c0-1.336-0.387-2.414-1.16-3.234
	S137.759,134.271,136.517,134.271z M231.087,145.768h5.695c3.258,0,4.887,1.113,4.887,3.34c0,1.594-0.568,2.836-1.705,3.727
	s-2.736,1.336-4.799,1.336h-6.68c-2.438,0-4.318-0.51-5.643-1.529s-1.986-2.479-1.986-4.377c0-1.219,0.492-3,1.477-5.344
	l9.035-21.164l-6.785,7.277c-1.617,1.758-3.152,2.637-4.605,2.637c-1.898,0-3.129-1.301-3.691-3.902l-0.984-4.359l-8.578,21.164
	c-2.953,7.266-5.203,12.205-6.75,14.818s-3.551,4.881-6.012,6.803c-3.563,2.766-7.652,4.148-12.27,4.148
	c-4.922,0-8.918-1.553-11.988-4.658c-3.071-3.105-4.605-7.154-4.605-12.146c0-6.539,2.414-12.293,7.242-17.262
	c2.602-2.648,5.848-4.787,9.738-6.416c3.89-1.629,7.722-2.443,11.496-2.443c1.921,0,3.457,0.41,4.605,1.23
	c1.148,0.82,1.723,1.91,1.723,3.27c0,1.43-0.61,2.59-1.828,3.48c-0.703,0.516-2.063,0.867-4.078,1.055
	c-4.664,0.422-8.426,1.488-11.285,3.199c-2.368,1.43-4.249,3.293-5.643,5.59c-1.395,2.297-2.092,4.699-2.092,7.207
	c0,2.672,0.68,4.775,2.039,6.311c1.359,1.535,3.222,2.303,5.59,2.303c2.835,0,5.303-1.213,7.4-3.639
	c2.097-2.426,4.4-6.709,6.908-12.85l13.957-34.348c1.218-3.023,2.859-4.535,4.922-4.535c1.313,0,2.35,0.422,3.111,1.266
	c0.761,0.844,1.424,2.32,1.986,4.43l2.145,8.086l10.547-10.371c2.32-2.273,4.488-3.41,6.504-3.41c1.406,0,2.596,0.428,3.568,1.283
	s1.459,1.893,1.459,3.111c0,0.773-0.188,1.617-0.563,2.531l-0.809,1.969L231.087,145.768z M255.31,146.506h3.973
	c2.953,0,4.43,1.043,4.43,3.129c0,1.43-0.521,2.543-1.564,3.34s-2.502,1.195-4.377,1.195h-5.59c-2.063,0-3.686-0.422-4.869-1.266
	s-1.775-1.992-1.775-3.445c0-0.773,0.246-1.758,0.738-2.953l5.801-14.273l0.387-0.984c1.078-2.648,2.813-3.973,5.203-3.973
	c0.984,0,1.834,0.328,2.549,0.984s1.072,1.441,1.072,2.355c0,0.75-0.316,1.898-0.949,3.445L255.31,146.506z M259.95,116.061
	c1.359,0,2.514,0.475,3.463,1.424s1.424,2.104,1.424,3.463s-0.475,2.514-1.424,3.463s-2.104,1.424-3.463,1.424
	s-2.514-0.475-3.463-1.424s-1.424-2.104-1.424-3.463s0.475-2.514,1.424-3.463S258.591,116.061,259.95,116.061z M285.192,154.17
	h-10.195c-2.93,0-5.314-1.031-7.154-3.094s-2.76-4.734-2.76-8.016c0-4.383,1.512-8.191,4.535-11.426s6.574-4.852,10.652-4.852
	c2.766,0,5.016,0.773,6.75,2.32s2.602,3.563,2.602,6.047c0,1.734-0.434,3.158-1.301,4.271s-1.98,1.67-3.34,1.67
	c-2.156,0-3.234-1.008-3.234-3.023c0-0.305,0-0.563,0-0.773c0.023-0.258,0.035-0.504,0.035-0.738c0-1.641-0.809-2.461-2.426-2.461
	c-1.523,0-2.912,0.809-4.166,2.426s-1.881,3.422-1.881,5.414c0,1.664,0.51,2.842,1.529,3.533s2.748,1.037,5.186,1.037h6.645
	c2.977,0,4.465,1.043,4.465,3.129c0,1.406-0.533,2.514-1.6,3.322S287.021,154.17,285.192,154.17z M313.88,139.299l5.449,8.543
	c0.68,1.055,1.02,1.922,1.02,2.602c0,1.078-0.451,2.051-1.354,2.918s-1.916,1.301-3.041,1.301c-0.984,0-1.84-0.527-2.566-1.582
	l-0.422-0.633l-8.156-12.199l-3.938,9.738c-1.266,3.117-3.117,4.676-5.555,4.676c-1.008,0-1.857-0.311-2.549-0.932
	s-1.037-1.377-1.037-2.268c0-0.68,0.188-1.465,0.563-2.355l0.387-0.949l15.047-37.09l0.387-0.949
	c1.078-2.625,2.801-3.938,5.168-3.938c0.984,0,1.828,0.328,2.531,0.984s1.055,1.441,1.055,2.355c0,0.703-0.188,1.512-0.563,2.426
	l-0.387,0.949l-8.965,22.078l7.91-5.871c1.641-1.219,3.047-1.828,4.219-1.828c0.984,0,1.805,0.316,2.461,0.949
	s0.984,1.418,0.984,2.355c0,1.57-0.867,3-2.602,4.289l-0.809,0.598L313.88,139.299z M331.845,143.869
	c0,1.758,1.324,2.637,3.973,2.637h10.441c2.953,0,4.43,1.043,4.43,3.129c0,1.43-0.521,2.543-1.564,3.34s-2.502,1.195-4.377,1.195
	h-9.949c-3.703,0-6.521-0.914-8.455-2.742s-2.9-4.5-2.9-8.016c0-4.523,1.529-8.426,4.588-11.707s6.697-4.922,10.916-4.922
	c3.07,0,5.537,0.803,7.4,2.408s2.795,3.721,2.795,6.346c0,3.164-1.289,5.508-3.867,7.031c-1.43,0.867-3.563,1.301-6.398,1.301
	H331.845z M333.532,137.471h3.867c2.508,0,3.727-0.551,3.656-1.652c-0.07-1.242-0.879-1.863-2.426-1.863
	C336.474,133.955,334.774,135.127,333.532,137.471z M372.099,155.611h4.078c2.977,0,4.465,1.043,4.465,3.129
	c0,1.43-0.521,2.543-1.564,3.34s-2.502,1.195-4.377,1.195h-5.695c-0.68,2.016-1.91,4.688-3.691,8.016
	c-3.094,5.859-7.594,8.789-13.5,8.789c-3.586,0-6.598-1.125-9.035-3.375s-3.656-5.039-3.656-8.367c0-2.32,0.662-4.482,1.986-6.486
	s3.064-3.51,5.221-4.518c2.484-1.148,6.152-1.723,11.004-1.723h5.73l1.02-2.531c-1.734,0.727-3.328,1.09-4.781,1.09
	c-2.508,0-4.541-0.639-6.1-1.916s-2.338-2.936-2.338-4.975c0-1.242,0.504-3.105,1.512-5.59l3.832-9.457l0.387-0.984
	c1.125-2.648,2.871-3.973,5.238-3.973c1.031,0,1.893,0.328,2.584,0.984s1.037,1.488,1.037,2.496c0,0.68-0.305,1.781-0.914,3.305
	l-3.445,8.402c-0.539,1.359-0.82,2.238-0.844,2.637c-0.07,1.148,0.656,1.723,2.18,1.723c1.078,0,2.18-0.316,3.305-0.949
	s1.84-1.348,2.145-2.145l4.711-11.496l0.352-0.984c1.102-2.648,2.848-3.973,5.238-3.973c1.031,0,1.893,0.334,2.584,1.002
	s1.037,1.494,1.037,2.479c0,0.68-0.176,1.465-0.527,2.355l-0.422,0.949L372.099,155.611z M360.603,163.275h-4.922
	c-5.391,0-8.086,1.688-8.086,5.063c0,1.195,0.369,2.156,1.107,2.883s1.729,1.09,2.971,1.09c1.711,0,3.229-0.668,4.553-2.004
	S359.009,166.627,360.603,163.275z"/>
</svg>
